#N canvas 1492 151 1133 561 10;
#X msg -544 -1192 /Users/jtraer/LabBook/Workshop/ReverbPaper/Demos/Audio4Webpage/Code/IR_Analysis_Synthesis/RecordedAudio/Boards/LED4-Center
;
#X msg -110 -1170 Mrbl_LED4/ch1;
#X text 154 -1205 Choose Synthetic;
#X msg 163 -1183 R_Lin;
#X msg 173 -1159 R_NoMod;
#X msg 182 -1134 R_SpcCnst;
#X msg 327 -1179 Impulse;
#X text 383 -1198 Choose Excitation Force;
#X msg 486 -1149 _0001;
#X obj -541 -985 l2s;
#X obj -132 -1021 l2s;
#X obj 162 -967 l2s;
#X obj 306 -961 l2s;
#X obj 337 -946 l2s;
#X obj -109 -835 symbol \$1;
#X obj 52 -824 print fnm;
#X msg -107 -804 open \$1;
#X obj -107 -734 readsf~ 1;
#X obj -99 -779 bng 15 250 50 0 empty empty empty 17 7 0 10 -262144
-1 -1;
#X msg -98 -759 start;
#X obj -107 -707 dac~ 1 2;
#X obj -47 -705 bng 15 250 50 0 empty empty empty 17 7 0 10 -262144
-1 -1;
#X obj -393 -854 symbol \$1;
#X msg -392 -763 open \$1;
#X obj -392 -735 pix_image \$1;
#X obj -453 -764 gemhead;
#X obj -392 -711 pix_texture;
#X obj -392 -686 rectangle 4 3;
#X obj -421 -638 gemwin;
#X msg -421 -663 reset \, dimen 640 480 \, create \, 1;
#X msg 189 -1110 S_Exp;
#X obj -420 -686 bng 15 250 50 0 empty empty empty 17 7 0 10 -262144
-1 -1;
#X msg 59 -1185 040Bnds;
#X obj 53 -1042 l2s;
#X msg -109 -860 \$1/\$2/ExcFrc\$3/\$4_\$5\$6.wav;
#X msg 190 -1088 S_LinEnd;
#X msg 200 -1066 S_LinStrt;
#X msg 207 -1043 S_SpcCnst;
#X msg 129 -1183 RW;
#X msg -115 -1192 Grnt_LED42/ch1;
#X msg -79 -1065 MtlBg_LED4/ch1;
#X msg -73 -1042 MtlSmll_LED4/ch1;
#X msg -96 -1127 Ok_LED4/ch1;
#X msg -104 -1147 Slt_LED4/ch1;
#X msg -89 -1107 WdBg_LED4/ch1;
#X msg -83 -1086 WdMd_LED4/ch1;
#X text -119 -1211 IR;
#X text 50 -1206 No of Bands;
#X obj -144 -937 bng 15 250 50 0 empty empty empty 17 7 0 10 -262144
-1 -1;
#X msg 337 -1156 Gauss;
#X msg 489 -1123 _0007;
#X msg 487 -1100 _0013;
#X msg 489 -1047 _0025;
#X msg 488 -1022 _0050;
#X msg 490 -1002 _0099;
#X msg 491 -978 _0196;
#X msg 491 -954 _0300;
#X msg 348 -1133 IR;
#X msg 324 -999 _0000;
#X msg 489 -1077 _0019;
#X obj -129 -888 pack s s s s s s;
#X msg -500 -705 destroy;
#X obj -335 -764 print fnm2;
#X obj -144 -915 del 10;
#X msg -393 -875 \$1/\$2/ExcFrc\$3/\$4_\$5\$6;
#X obj -395 -832 pack s s;
#X msg -541 -946 Cgrm;
#X msg -392 -810 \$1_\$2.jpg;
#X obj -392 -787 symbol \$1;
#X obj -457 -873 l2s;
#X msg -501 -926 IR;
#X obj -461 -853 bng 15 250 50 0 empty empty empty 17 7 0 10 -262144
-1 -1;
#X obj -459 -832 del 10;
#X connect 0 0 9 0;
#X connect 1 0 10 0;
#X connect 3 0 11 0;
#X connect 4 0 11 0;
#X connect 5 0 11 0;
#X connect 6 0 12 0;
#X connect 8 0 13 0;
#X connect 9 0 60 0;
#X connect 10 0 48 0;
#X connect 10 0 60 1;
#X connect 11 0 48 0;
#X connect 11 0 60 3;
#X connect 12 0 48 0;
#X connect 12 0 60 4;
#X connect 13 0 48 0;
#X connect 13 0 60 5;
#X connect 14 0 16 0;
#X connect 16 0 17 0;
#X connect 16 0 18 0;
#X connect 17 0 20 0;
#X connect 17 0 20 1;
#X connect 17 1 21 0;
#X connect 18 0 19 0;
#X connect 19 0 17 0;
#X connect 22 0 65 0;
#X connect 23 0 24 0;
#X connect 23 0 31 0;
#X connect 24 0 26 0;
#X connect 25 0 24 0;
#X connect 26 0 27 0;
#X connect 29 0 28 0;
#X connect 30 0 11 0;
#X connect 31 0 29 0;
#X connect 32 0 33 0;
#X connect 33 0 48 0;
#X connect 33 0 60 2;
#X connect 34 0 14 0;
#X connect 34 0 15 0;
#X connect 35 0 11 0;
#X connect 36 0 11 0;
#X connect 37 0 11 0;
#X connect 38 0 11 0;
#X connect 39 0 10 0;
#X connect 40 0 10 0;
#X connect 41 0 10 0;
#X connect 42 0 10 0;
#X connect 43 0 10 0;
#X connect 44 0 10 0;
#X connect 45 0 10 0;
#X connect 48 0 63 0;
#X connect 49 0 12 0;
#X connect 50 0 13 0;
#X connect 51 0 13 0;
#X connect 52 0 13 0;
#X connect 53 0 13 0;
#X connect 54 0 13 0;
#X connect 55 0 13 0;
#X connect 56 0 13 0;
#X connect 57 0 12 0;
#X connect 57 0 58 0;
#X connect 58 0 13 0;
#X connect 59 0 13 0;
#X connect 60 0 34 0;
#X connect 60 0 64 0;
#X connect 61 0 28 0;
#X connect 63 0 60 0;
#X connect 64 0 22 0;
#X connect 65 0 67 0;
#X connect 66 0 69 0;
#X connect 67 0 68 0;
#X connect 68 0 62 0;
#X connect 68 0 23 0;
#X connect 69 0 65 1;
#X connect 69 0 71 0;
#X connect 70 0 69 0;
#X connect 71 0 72 0;
#X connect 72 0 65 0;
